# xmcd
#
# Track frame offsets:
#	150
#	13555
#	30041
#	46834
#	60553
#	71892
#	84789
#	95945
#	113544
#	122247
#	132811
#	145590
#	160506
#	171003
#	183708
#	198181
#	211968
#	222724
#	235417
#	252722
#
# Disc length: 3596 seconds
#
# Revision: 1
# Processed by: cddbd v1.5.1PL0 Copyright (c) Steve Scherf et al.
# Submitted via: EasyCDDAExtractor 6.2.0.3
#
DISCID=170e0a14
DTITLE=Various Artist - Acuff-Rose Greatest Hits - Volume 2
DYEAR=2001
DGENRE=Various
TTITLE0=Bandy, Moe - Bandy The Rodeo Clown
TTITLE1=Montgomery, John Michael - Beer And Bones
TTITLE2=Harris, EmmyLou - Beneath Still Waters
TTITLE3=Dean, Jimmy - Big Bad John
TTITLE4=Lang, K. D. - Big Big Love
TTITLE5=Orbison, Roy - Blue Angel
TTITLE6=Orbison, Roy - Blue Bayou
TTITLE7=Ronstadt, Linda - Blue Bayou
TTITLE8=Gibson, Don - Blue Blue Day
TTITLE9=Nelson, Willie - Blue Eyes Crying In The Rain
TTITLE10=Campbell, Glen - Bonaparte's Retreat
TTITLE11=Alabama - Born Country
TTITLE12=Hamilton, IV, George - Break My Mind
TTITLE13=Dean, Jimmy - Bumming Around
TTITLE14=Ewing, Skip - Burnin' A Hole In My Heart
TTITLE15=McEntire, Reba - Cathy's Clown
TTITLE16=Everly Brothers - Cathy's Clown
TTITLE17=Foley, Red - Chattanoogie Shoe Shine Boy
TTITLE18=Gosdin, Vern - Chiseled In Stone
TTITLE19=Ewing, Skip - Coast Of Colorado
EXTD=
EXTT0=
EXTT1=
EXTT2=
EXTT3=
EXTT4=
EXTT5=
EXTT6=
EXTT7=
EXTT8=
EXTT9=
EXTT10=
EXTT11=
EXTT12=
EXTT13=
EXTT14=
EXTT15=
EXTT16=
EXTT17=
EXTT18=
EXTT19=
PLAYORDER=
